<svg xmlns="http://www.w3.org/2000/svg" viewBox="0 0 200 200"><defs><style>.cls-1{fill:#0f4c81;}</style></defs><title>disk</title><g id="Layer_2" data-name="Layer 2"><path class="cls-1" d="M100,4a96,96,0,1,0,96,96A96,96,0,0,0,100,4Zm0,179.66a83.66,83.66,0,0,1,0-167.32h.13A83.66,83.66,0,0,1,100,183.66Z"/><path class="cls-1" d="M178.66,105a5,5,0,0,1-5-5A73.67,73.67,0,1,1,100,26.33a4.91,4.91,0,0,1-4.9-5,5,5,0,0,1,5-5H100A83.66,83.66,0,1,0,183.66,100,5,5,0,0,1,178.66,105Z"/><path class="cls-1" d="M100,26.33a73.77,73.77,0,1,0,73.67,73.87A73.84,73.84,0,0,0,100,26.33Zm0,136.36a62.5,62.5,0,1,1,62.5-62.49A62.5,62.5,0,0,1,100,162.69Z"/><path class="cls-1" d="M157.6,104.9a4.9,4.9,0,0,1-4.9-4.9A52.7,52.7,0,1,1,100,47.3a4.9,4.9,0,0,1,0-9.8A62.5,62.5,0,1,0,162.5,100,4.9,4.9,0,0,1,157.6,104.9Z"/><path class="cls-1" d="M47.3,100A52.7,52.7,0,1,0,100,47.3,52.69,52.69,0,0,0,47.3,100ZM100,59.44A40.56,40.56,0,1,1,59.44,100,40.56,40.56,0,0,1,100,59.44Z"/><circle class="cls-1" cx="100" cy="100" r="14.11"/></g></svg>