<svg xmlns="http://www.w3.org/2000/svg" viewBox="0 0 200 200"><defs><style>.cls-1{fill:#0f4c81;}.cls-2{fill:#f0f4f7;}</style></defs><title>music-note</title><g id="Layer_2" data-name="Layer 2"><path class="cls-1" d="M48.28,190.42c-.73,0-1.24,0-1.52,0-12.25,0-19.4-4.69-23.24-8.6a22.56,22.56,0,0,1-5.6-9c-4.74-15.14,9-26.74,10.64-28.1,8.13-7.6,18.46-9.2,25.71-9.2a50.81,50.81,0,0,1,5.54.31V36L183.06,10.4V142.58l0,.22c-1.08,8.69-8.85,15.95-9.48,16.52a42.59,42.59,0,0,1-29.11,11.82,29,29,0,0,1-5.19-.41c-13-1.81-19-7.84-21.69-12.58A20.44,20.44,0,0,1,114.74,148c-.71-7.5,2.3-14.72,8.72-20.92a42.78,42.78,0,0,1,9.68-7c6.55-3.63,14.94-4.39,20.84-4.39,1.3,0,2.49,0,3.52.09v-61L85.61,69.33v93.16l-.06.31c-2,11.65-11.17,17.84-12.72,18.82A41.42,41.42,0,0,1,48.28,190.42Z"/><path class="cls-2" d="M179.48,14.81V142.36c-1,7.64-8.36,14.33-8.36,14.33a38.86,38.86,0,0,1-26.68,10.86,25.93,25.93,0,0,1-4.61-.35c-22.45-3.11-21.5-19.35-21.5-19.35-1.67-15.76,16.48-24.6,16.48-24.6,5.87-3.28,13.61-4,19.17-4a58.36,58.36,0,0,1,7.11.4V50.4L82,66.4v95.78c-1.91,11-11.22,16.48-11.22,16.48a37.84,37.84,0,0,1-22.52,8.17c-.88,0-1.37-.05-1.37-.05-21.49,0-25.55-15-25.55-15-4.3-13.62,9.55-24.37,9.55-24.37,7.23-6.82,16.56-8.32,23.36-8.32a42.53,42.53,0,0,1,9.12.92v-101L179.48,14.81M186.64,6,178,7.79,61.94,31.92,56.23,33.1v98.82c-.63,0-1.28,0-2,0-7.87,0-19.1,1.75-28.06,10.08a40.41,40.41,0,0,0-7.65,8.51c-5,7.58-6.46,15.64-4.07,23.32A26,26,0,0,0,21,184.29c4.3,4.37,12.24,9.59,25.66,9.66.37,0,.93.05,1.65.05a45.1,45.1,0,0,0,26.6-9.44,33,33,0,0,0,6.05-5.12,31.45,31.45,0,0,0,8.15-16l.11-.61V72.26l64.73-13.1v53c-6.29,0-15.26.84-22.45,4.8a45.86,45.86,0,0,0-10.5,7.57c-7.18,6.93-10.56,15.09-9.81,23.64a24.09,24.09,0,0,0,3.29,11.82c3.13,5.42,9.87,12.3,24.23,14.33a33.31,33.31,0,0,0,5.76.45A46.14,46.14,0,0,0,176,162c1.18-1.08,9.39-8.88,10.62-18.71l0-.45V6Z"/></g></svg>